<?xml version="1.0" encoding="iso-8859-1"?>
<!-- Generator: Adobe Illustrator 19.0.0, SVG Export Plug-In . SVG Version: 6.00 Build 0)  -->
<svg version="1.1" id="Capa_1" xmlns="http://www.w3.org/2000/svg" xmlns:xlink="http://www.w3.org/1999/xlink" x="0px" y="0px"
	 viewBox="0 0 511.999 511.999" style="enable-background:new 0 0 511.999 511.999;" xml:space="preserve">
<g>
	<g>
		<path d="M209.039,433.759H42.463c-14.958,0-27.128-12.169-27.128-27.128s12.169-27.128,27.128-27.128
			c14.958,0,27.128,12.169,27.128,27.128c0,4.235,3.433,7.668,7.668,7.668s7.668-3.433,7.668-7.668V165.878H186.56
			c4.235,0,7.668-3.433,7.668-7.668s-3.433-7.668-7.668-7.668H84.927v-25.235c0-23.414-19.049-42.463-42.463-42.463
			S0,101.893,0,125.307v221.932c0,4.235,3.433,7.668,7.668,7.668s7.668-3.433,7.668-7.668V125.307
			c0-14.958,12.169-27.128,27.128-27.128c14.958,0,27.128,12.169,27.128,27.128v248.679c-7.362-6.128-16.823-9.819-27.128-9.819
			C19.049,364.168,0,383.217,0,406.631s19.049,42.463,42.463,42.463h166.575c4.235,0,7.668-3.433,7.668-7.668
			S213.273,433.759,209.039,433.759z"/>
	</g>
</g>
<g>
	<g>
		<path d="M469.537,82.844c-23.414,0-42.463,19.049-42.463,42.463v25.235H220.216c-4.235,0-7.668,3.433-7.668,7.668
			s3.433,7.668,7.668,7.668h206.857v240.753c0,4.235,3.433,7.668,7.668,7.668c4.235,0,7.668-3.433,7.668-7.668
			c0-14.958,12.169-27.128,27.128-27.128c14.958,0,27.128,12.169,27.128,27.128c0,14.958-12.169,27.128-27.128,27.128H249.293
			c-4.235,0-7.668,3.433-7.668,7.668s3.433,7.668,7.668,7.668h220.244c21.692,0,39.637-16.352,42.16-37.376
			c0.197-0.68,0.303-1.399,0.303-2.142V125.307C512,101.893,492.951,82.844,469.537,82.844z M496.664,373.987
			c-7.362-6.128-16.822-9.819-27.128-9.819c-10.305,0-19.766,3.691-27.128,9.819V125.307c0-14.958,12.169-27.128,27.128-27.128
			s27.128,12.169,27.128,27.128V373.987z"/>
	</g>
</g>
<g>
	<g>
		<path d="M353.002,267.132h-16.121c-5.729,0-7.984-4.367-8.538-5.705s-2.049-6.021,2.003-10.072l10.27-10.27
			c1.438-1.438,2.246-3.388,2.246-5.422s-0.808-3.984-2.246-5.422l-25.137-25.136c-2.995-2.995-7.85-2.995-10.843,0l-14.124,14.124
			c-4.053,4.052-8.734,2.557-10.072,2.003c-1.338-0.554-5.705-2.808-5.705-8.538v-23.832c0-4.235-3.433-7.668-7.668-7.668h-35.549
			c-4.235,0-7.668,3.433-7.668,7.668v23.831c0,5.729-4.367,7.984-5.705,8.538c-1.338,0.555-6.02,2.049-10.071-2.003l-14.125-14.125
			c-2.994-2.995-7.849-2.995-10.843,0l-25.137,25.136c-1.438,1.437-2.246,3.388-2.246,5.422s0.808,3.984,2.246,5.422l10.27,10.27
			c4.052,4.052,2.558,8.733,2.003,10.072c-0.554,1.338-2.808,5.705-8.539,5.705h-16.121c-4.235,0-7.668,3.433-7.668,7.668v35.549
			c0,4.235,3.433,7.668,7.668,7.668h23.831c5.729,0,7.984,4.367,8.538,5.705c0.554,1.338,2.048,6.02-2.003,10.071l-17.979,17.979
			c-2.995,2.995-2.995,7.85,0,10.843l25.137,25.137c2.995,2.995,7.85,2.995,10.843,0l14.125-14.125
			c4.051-4.05,8.733-2.557,10.071-2.003c1.338,0.554,5.705,2.808,5.705,8.538v16.122c0,4.235,3.433,7.668,7.668,7.668h35.549
			c4.236,0.002,7.669-3.431,7.669-7.666v-16.121c0-5.729,4.367-7.985,5.705-8.539c1.339-0.554,6.021-2.048,10.072,2.003
			l14.124,14.125c1.437,1.439,3.388,2.246,5.422,2.246s3.984-0.808,5.422-2.246l25.137-25.137c2.995-2.995,2.995-7.85,0-10.843
			l-17.979-17.979c-4.052-4.052-2.558-8.733-2.003-10.071c0.554-1.338,2.808-5.705,8.538-5.705h23.831
			c4.235,0,7.668-3.433,7.668-7.668V274.8C360.67,270.565,357.237,267.132,353.002,267.132z M345.336,302.68h-16.163
			c-10.13,0-18.83,5.814-22.706,15.172c-3.877,9.358-1.834,19.621,5.328,26.783l12.558,12.558l-14.293,14.293l-8.702-8.702
			c-7.163-7.162-17.425-9.204-26.784-5.328c-9.36,3.877-15.174,12.578-15.174,22.708v8.453h-20.213v-8.454
			c0-10.13-5.814-18.83-15.172-22.706c-9.358-3.877-19.621-1.834-26.783,5.328l-8.703,8.703l-14.293-14.293l12.558-12.558
			c7.163-7.162,9.203-17.425,5.328-26.784c-3.877-9.358-12.577-15.172-22.706-15.172h-16.163v-20.213h8.453
			c10.13,0,18.83-5.814,22.707-15.172c3.877-9.359,1.834-19.621-5.328-26.784l-4.848-4.848l14.293-14.293l8.703,8.703
			c7.163,7.164,17.426,9.202,26.784,5.328c9.358-3.877,15.172-12.577,15.172-22.706v-16.165h20.213v16.163
			c0,10.13,5.814,18.83,15.172,22.706c9.359,3.877,19.621,1.834,26.784-5.328l8.702-8.702l14.293,14.293l-4.848,4.848
			c-7.163,7.163-9.203,17.425-5.328,26.784c3.877,9.359,12.577,15.172,22.706,15.172h8.453V302.68z"/>
	</g>
</g>
<g>
	<g>
		<path d="M249.292,239.751c-29.126,0-52.823,23.697-52.823,52.823s23.697,52.823,52.823,52.823s52.823-23.697,52.823-52.823
			C302.115,263.447,278.418,239.751,249.292,239.751z M249.293,330.061c-20.67,0-37.487-16.817-37.487-37.487
			s16.817-37.487,37.487-37.487s37.487,16.817,37.487,37.487C286.779,313.244,269.963,330.061,249.293,330.061z"/>
	</g>
</g>
<g>
	<g>
		<path d="M403.647,181.195h-42.322c-4.235,0-7.668,3.433-7.668,7.668s3.433,7.668,7.668,7.668h34.654v21.552
			c0,4.235,3.433,7.668,7.668,7.668s7.668-3.433,7.668-7.668v-29.219C411.315,184.629,407.881,181.195,403.647,181.195z"/>
	</g>
</g>
<g>
	<g>
		<path d="M403.647,236.422c-4.235,0-7.668,3.433-7.668,7.668v10.403c0,4.235,3.433,7.668,7.668,7.668s7.668-3.433,7.668-7.668
			V244.09C411.315,239.855,407.881,236.422,403.647,236.422z"/>
	</g>
</g>
<g>
	<g>
		<path d="M403.647,279.704c-4.235,0-7.668,3.433-7.668,7.668v10.403c0,4.235,3.433,7.668,7.668,7.668s7.668-3.433,7.668-7.668
			v-10.403C411.315,283.137,407.881,279.704,403.647,279.704z"/>
	</g>
</g>
<g>
	<g>
		<path d="M403.647,322.988c-4.235,0-7.668,3.433-7.668,7.668v10.403c0,4.235,3.433,7.668,7.668,7.668s7.668-3.433,7.668-7.668
			v-10.403C411.315,326.421,407.881,322.988,403.647,322.988z"/>
	</g>
</g>
<g>
	<g>
		<path d="M403.647,366.271c-4.235,0-7.668,3.433-7.668,7.668v10.403c0,4.235,3.433,7.668,7.668,7.668s7.668-3.433,7.668-7.668
			v-10.403C411.315,369.704,407.881,366.271,403.647,366.271z"/>
	</g>
</g>
<g>
	<g>
		<path d="M384.794,62.905h-15.823h-23.863H170.815c-0.013,0-0.026,0.002-0.038,0.002c-0.059,0-0.12,0.007-0.179,0.009
			c-0.233,0.006-0.465,0.02-0.693,0.048c-0.083,0.01-0.166,0.026-0.248,0.038c-0.212,0.032-0.42,0.072-0.626,0.121
			c-0.081,0.019-0.161,0.04-0.242,0.062c-0.22,0.06-0.435,0.13-0.645,0.209c-0.044,0.016-0.089,0.026-0.132,0.043L110.63,85.976
			c-3.041,1.194-4.99,4.184-4.857,7.447c0.131,3.263,2.317,6.085,5.443,7.03l57.289,17.31c0.026,0.008,0.05,0.015,0.076,0.022
			l0.017,0.005c0.008,0.002,0.016,0.003,0.023,0.005c0.311,0.093,0.631,0.161,0.957,0.214c0.077,0.012,0.153,0.025,0.231,0.035
			c0.329,0.043,0.664,0.074,1.005,0.074h0.001h174.292h23.863h15.823c14.624,0,26.52-11.897,26.52-26.52v-2.172
			C411.315,74.801,399.417,62.905,384.794,62.905z M163.147,100.123l-26.333-7.956l26.333-10.343V100.123z M337.44,102.782H178.483
			V78.241H337.44V102.782z M361.303,102.782h-8.528V78.241h8.528V102.782z M395.979,91.598c0,6.168-5.018,11.185-11.185,11.185
			h-8.156V78.241h8.156c6.167,0,11.185,5.018,11.185,11.185V91.598z"/>
	</g>
</g>
<g>
</g>
<g>
</g>
<g>
</g>
<g>
</g>
<g>
</g>
<g>
</g>
<g>
</g>
<g>
</g>
<g>
</g>
<g>
</g>
<g>
</g>
<g>
</g>
<g>
</g>
<g>
</g>
<g>
</g>
</svg>
